HIERARCHY
ROOT Hips
{
	OFFSET -0.001795 -0.223333 0.028219
	CHANNELS 6 Xposition Yposition Zposition Zrotation Yrotation Xrotation 
	JOINT LeftUpLeg
	{
		OFFSET 0.069520 -0.091406 -0.006815
		CHANNELS 3 Zrotation Yrotation Xrotation
		JOINT LeftLeg
		{
			OFFSET 0.034277 -0.375199 -0.004496
			CHANNELS 3 Zrotation Yrotation Xrotation
			JOINT LeftFoot
			{
				OFFSET -0.013596 -0.397961 -0.043693
				CHANNELS 3 Zrotation Yrotation Xrotation
				JOINT LeftToe
				{
					OFFSET 0.026358 -0.055791 0.119288
					CHANNELS 3 Zrotation Yrotation Xrotation
					End Site
					{
						OFFSET 0.000000 0.000000 0.000000
					}
				}
			}
		}
	}
	JOINT RightUpLeg
	{
		OFFSET -0.067670 -0.090522 -0.004320
		CHANNELS 3 Zrotation Yrotation Xrotation
		JOINT RightLeg
		{
			OFFSET -0.038290 -0.382569 -0.008850
			CHANNELS 3 Zrotation Yrotation Xrotation
			JOINT RightFoot
			{
				OFFSET 0.015774 -0.398415 -0.042312
				CHANNELS 3 Zrotation Yrotation Xrotation
				JOINT RightToe
				{
					OFFSET -0.025372 -0.048144 0.123348
					CHANNELS 3 Zrotation Yrotation Xrotation
					End Site
					{
						OFFSET 0.000000 0.000000 0.000000
					}
				}
			}
		}
	}
	JOINT Spine
	{
		OFFSET -0.002533 0.108963 -0.026696
		CHANNELS 3 Zrotation Yrotation Xrotation
		JOINT Spine1
		{
			OFFSET 0.005487 0.135180 0.001092
			CHANNELS 3 Zrotation Yrotation Xrotation
			JOINT Spine2
			{
				OFFSET 0.001457 0.052922 0.025425
				CHANNELS 3 Zrotation Yrotation Xrotation
				JOINT Neck
				{
					OFFSET -0.002778 0.213870 -0.042857
					CHANNELS 3 Zrotation Yrotation Xrotation
					JOINT Head
					{
						OFFSET 0.005152 0.064970 0.051349
						CHANNELS 3 Zrotation Yrotation Xrotation
						End Site
						{
							OFFSET 0.000000 0.000000 0.000000
						}
					}
				}
				JOINT LeftShoulder
				{
					OFFSET 0.078845 0.121749 -0.034090
					CHANNELS 3 Zrotation Yrotation Xrotation
					JOINT LeftArm
					{
						OFFSET 0.090977 0.030469 -0.008868
						CHANNELS 3 Zrotation Yrotation Xrotation
						JOINT LeftForeArm
						{
							OFFSET 0.259612 -0.012772 -0.027456
							CHANNELS 3 Zrotation Yrotation Xrotation
							JOINT LeftHand
							{
								OFFSET 0.249234 0.008986 -0.001171
								CHANNELS 3 Zrotation Yrotation Xrotation
								End Site
								{
									OFFSET 0.000000 0.000000 0.000000
								}
							}
						}
					}
				}
				JOINT RightShoulder
				{
					OFFSET -0.081759 0.118833 -0.038615
					CHANNELS 3 Zrotation Yrotation Xrotation
					JOINT RightArm
					{
						OFFSET -0.096012 0.032551 -0.009143
						CHANNELS 3 Zrotation Yrotation Xrotation
						JOINT RightForeArm
						{
							OFFSET -0.253742 -0.013329 -0.021401
							CHANNELS 3 Zrotation Yrotation Xrotation
							JOINT RightHand
							{
								OFFSET -0.255298 0.007772 -0.005559
								CHANNELS 3 Zrotation Yrotation Xrotation
								End Site
								{
									OFFSET 0.000000 0.000000 0.000000
								}
							}
						}
					}
				}
			}
		}
	}
}
MOTION
Frames: 6
Frame Time: 0.050000
0.000000 0.931921 0.000000 2.688236 -2.806911 -3.260498 -0.846934 -1.665445 -17.228646 -1.611175 0.038012 9.452971 -0.267247 4.658719 14.823075 0.000000 0.000000 0.000000 1.283097 -1.572171 14.902443 -3.488226 1.652090 16.574010 1.001671 3.029309 -0.744098 0.000000 0.000000 0.000000 1.891472 -0.622889 11.766847 -5.966073 1.984195 -26.357582 3.231400 14.297608 31.386528 9.827731 -1.531862 -29.703689 0.000000 0.000000 0.000000 -22.184368 -4.753218 -2.342045 -49.376666 -1.455958 -6.917681 -9.108944 -22.026967 2.349949 0.000000 0.000000 0.000000 24.728109 -3.694791 0.347064 55.687572 19.120924 -0.181389 6.961787 34.869676 5.121160 0.000000 0.000000 0.000000 
0.007045 0.935547 0.051925 3.264465 -2.781205 -2.808164 -2.989203 -1.866962 -16.117003 -0.562162 -0.232793 12.176182 -0.395312 3.497183 11.629317 0.000000 0.000000 0.000000 -1.414129 -0.825654 10.628660 -0.254334 1.572745 28.706094 2.491063 2.243222 6.447370 0.000000 0.000000 0.000000 1.271256 -0.464358 9.648678 -6.786835 2.166660 -26.565106 2.901725 12.346839 33.067471 9.259064 -1.464825 -30.587088 0.000000 0.000000 0.000000 -21.654203 -1.724690 -3.229551 -49.703389 -4.120582 -6.355155 -8.511393 -21.032584 2.246563 0.000000 0.000000 0.000000 25.131326 -4.870704 -0.897323 57.837460 17.023450 -1.166431 9.590426 33.788225 5.721836 0.000000 0.000000 0.000000 
0.012359 0.940416 0.099701 4.056388 -5.247869 -3.894491 -3.705263 -1.554651 -12.672725 -1.507300 0.041632 13.888938 0.578184 4.069139 8.852156 0.000000 0.000000 0.000000 -3.986842 -0.108280 3.877121 2.645219 1.671027 43.066082 2.072245 -3.103535 15.604558 0.000000 0.000000 0.000000 0.895323 -0.433953 10.317313 -7.020182 2.222668 -25.927897 2.123491 13.720097 32.645744 9.311768 -1.562389 -30.204328 0.000000 0.000000 0.000000 -19.275644 -2.957222 -2.004374 -51.592514 -4.987624 -6.400829 -8.592401 -21.686380 2.348770 0.000000 0.000000 0.000000 24.959268 -5.802707 -1.566794 59.222870 14.731664 -2.176609 10.677181 32.896921 5.913698 0.000000 0.000000 0.000000 
0.015687 0.944083 0.142496 3.991977 -6.191723 -4.627074 -3.948491 -1.003999 -7.750491 -1.676195 0.112048 11.834946 0.850441 4.108350 7.500292 0.000000 0.000000 0.000000 -4.585879 0.264685 -2.409600 4.943999 1.325003 53.121505 -1.777464 -9.969364 16.316542 0.000000 0.000000 0.000000 1.588930 -0.514095 11.084318 -7.086319 2.262593 -24.789203 0.286473 11.656812 31.951126 9.586928 -2.121908 -30.733233 0.000000 0.000000 0.000000 -20.332862 -3.193528 -1.252269 -49.469814 -6.547393 -5.630874 -8.704444 -23.089261 2.640839 0.000000 0.000000 0.000000 25.907837 -5.495456 -2.271970 58.777048 13.150436 -2.924830 10.283173 32.179510 5.399628 0.000000 0.000000 0.000000 
0.016635 0.950278 0.181995 3.709131 -6.901231 -5.310302 -4.190918 -0.413212 -2.859384 -0.972203 -0.019334 9.367369 0.583689 3.956924 8.908730 0.000000 0.000000 0.000000 -5.083861 0.588938 -8.034408 7.722745 -0.014647 56.801868 -5.105735 -14.660726 10.395899 0.000000 0.000000 0.000000 1.547188 -0.557991 12.658385 -6.212183 2.017302 -26.022696 -1.100314 9.233015 33.057014 9.800616 -2.721444 -31.419171 0.000000 0.000000 0.000000 -21.531695 -3.760531 -0.104660 -47.609955 -8.838479 -4.929069 -8.706913 -24.164733 2.920300 0.000000 0.000000 0.000000 26.662067 -5.594457 -3.315103 58.553944 11.780259 -3.654303 9.800640 30.711114 4.778651 0.000000 0.000000 0.000000 
0.015849 0.954216 0.219542 2.838890 -8.165556 -5.899510 -3.520633 0.260185 2.286624 -1.110566 0.050900 6.163394 1.530505 5.364033 8.056595 0.000000 0.000000 0.000000 -4.474839 1.014234 -13.381788 9.347805 -0.777870 53.849638 -7.515351 -18.865278 6.472669 0.000000 0.000000 0.000000 3.074507 -0.737249 13.575881 -6.289781 2.013822 -26.360478 -2.184401 6.994572 33.404853 9.292092 -3.161635 -30.296278 0.000000 0.000000 0.000000 -20.467808 -4.470846 1.282756 -46.790338 -11.028540 -4.353508 -8.298216 -26.793687 3.308854 0.000000 0.000000 0.000000 27.497043 -5.627676 -4.508552 57.993758 9.695959 -4.504946 9.311120 29.495454 4.187781 0.000000 0.000000 0.000000 
